<svg xmlns="http://www.w3.org/2000/svg" viewBox="0 0 32 24">
  <rect width="32" height="24" fill="#DE2910"/>
  <g fill="#FFDE00">
    <polygon points="4,3 5.2,6.4 9,6.4 6.4,8.8 7.6,12.2 4,9.8 0.4,12.2 1.6,8.8 -1,6.4 2.8,6.4"/>
    <polygon points="12,2 12.6,3.2 14,3.2 13,4.2 13.6,5.4 12,4.6 10.4,5.4 11,4.2 10,3.2 11.4,3.2"/>
    <polygon points="14,6 14.6,7.2 16,7.2 15,8.2 15.6,9.4 14,8.6 12.4,9.4 13,8.2 12,7.2 13.4,7.2"/>
    <polygon points="14,12 14.6,13.2 16,13.2 15,14.2 15.6,15.4 14,14.6 12.4,15.4 13,14.2 12,13.2 13.4,13.2"/>
    <polygon points="10,14 10.6,15.2 12,15.2 11,16.2 11.6,17.4 10,16.6 8.4,17.4 9,16.2 8,15.2 9.4,15.2"/>
  </g>
</svg>
